<svg xmlns="http://www.w3.org/2000/svg" width="18" height="18" viewBox="0 0 18 18">
    <g fill="#000" fill-rule="nonzero">
        <path d="M12.616 0H5.353A5.359 5.359 0 0 0 0 5.353v7.263a5.359 5.359 0 0 0 5.353 5.352h7.263a5.359 5.359 0 0 0 5.352-5.352V5.353A5.359 5.359 0 0 0 12.616 0zm3.545 12.616a3.545 3.545 0 0 1-3.545 3.545H5.353a3.545 3.545 0 0 1-3.545-3.545V5.353a3.545 3.545 0 0 1 3.545-3.545h7.263a3.545 3.545 0 0 1 3.545 3.545v7.263z"/>
        <path d="M8.984 4.337a4.653 4.653 0 0 0-4.647 4.647 4.653 4.653 0 0 0 4.647 4.648 4.653 4.653 0 0 0 4.648-4.648 4.653 4.653 0 0 0-4.648-4.647zm0 7.487a2.84 2.84 0 1 1 0-5.68 2.84 2.84 0 0 1 0 5.68z"/>
        <circle cx="13.641" cy="4.372" r="1.114"/>
    </g>
</svg>
