<svg xmlns="http://www.w3.org/2000/svg" width="18" height="18" viewBox="0 0 18 18">
    <path fill="#000" fill-rule="nonzero" d="M15.575 0H2.425A2.426 2.426 0 0 0 0 2.426v13.148A2.426 2.426 0 0 0 2.426 18H8.91l.01-6.432h-1.67a.394.394 0 0 1-.395-.393l-.008-2.073c0-.219.176-.396.395-.396H8.91V6.702c0-2.325 1.42-3.59 3.494-3.59h1.701c.218 0 .395.176.395.394v1.748a.394.394 0 0 1-.394.394h-1.045c-1.128 0-1.346.537-1.346 1.323v1.735h2.478c.237 0 .42.206.392.44l-.246 2.074a.394.394 0 0 1-.391.348h-2.222L11.716 18h3.859A2.426 2.426 0 0 0 18 15.575V2.425A2.426 2.426 0 0 0 15.575 0z"/>
</svg>
