<svg xmlns="http://www.w3.org/2000/svg" width="18" height="18" viewBox="0 0 18 18">
    <path fill="#000" fill-rule="nonzero" d="M9 18c-4.963 0-9-4.037-9-9s4.037-9 9-9 9 4.037 9 9-4.037 9-9 9zm7.59-7.768c-.263-.083-2.38-.714-4.788-.329 1.005 2.763 1.414 5.014 1.493 5.481a7.7 7.7 0 0 0 3.295-5.152zm-4.587 5.856c-.114-.674-.56-3.025-1.64-5.83l-.05.018c-4.337 1.51-5.893 4.518-6.032 4.8a7.677 7.677 0 0 0 7.722 1.012zm-8.714-1.936c.174-.298 2.284-3.792 6.248-5.073.1-.033.202-.063.303-.092a25.758 25.758 0 0 0-.623-1.304c-3.839 1.149-7.564 1.1-7.9 1.094a7.657 7.657 0 0 0 1.972 5.375zM1.475 7.437c.344.005 3.511.019 7.107-.936a49.069 49.069 0 0 0-2.85-4.446 7.716 7.716 0 0 0-4.257 5.382zm5.724-5.899a41.032 41.032 0 0 1 2.868 4.5c2.733-1.024 3.89-2.58 4.029-2.777a7.678 7.678 0 0 0-6.897-1.723zM14.95 4.15c-.163.22-1.45 1.871-4.293 3.031a23.705 23.705 0 0 1 .676 1.51c2.557-.321 5.099.194 5.352.248a7.65 7.65 0 0 0-1.735-4.789z"/>
</svg>
