<svg xmlns="http://www.w3.org/2000/svg" width="129" height="31" viewBox="0 0 129 31">
    <g fill="none" fill-rule="evenodd">
        <path fill="#111" d="M14.52 22.8H12.7l-2.26-4.9H4.4l-2.24 4.9H.26L7.18 7.58h.52l6.82 15.22zm-4.86-6.64l-2.22-4.94-2.24 4.94h4.46zm8.26 6.64H16.2V8.16h1.72V22.8zm12.72 0h-2.16l-5.16-6.68h-.6v6.68H21V8.16h3c1.6 0 2.7.07 3.3.21.6.14 1.12.377 1.56.71.44.333.787.763 1.04 1.29s.38 1.11.38 1.75c0 1.213-.413 2.183-1.24 2.91-.827.727-2.02 1.09-3.58 1.09l5.18 6.68zm-7.92-8.36h2.34c1.173.013 2.04-.163 2.6-.53s.84-.953.84-1.76-.273-1.393-.82-1.76c-.547-.367-1.4-.55-2.56-.55h-2.4v4.6zm36.92 8.36h-.52l-9.28-10.62V22.8h-1.76V8.16h.52l9.34 10.76V8.16h1.7V22.8zM83.5 11.38c-.533-.72-.987-1.203-1.36-1.45-.373-.247-.81-.37-1.31-.37s-.92.16-1.26.48c-.34.32-.51.73-.51 1.23s.16.937.48 1.31c.32.373 1.057.983 2.21 1.83 1.153.847 1.997 1.643 2.53 2.39.533.747.8 1.533.8 2.36 0 1.08-.417 2.017-1.25 2.81-.833.793-1.803 1.19-2.91 1.19-1.947 0-3.473-1.087-4.58-3.26l1.46-.84c.867 1.613 1.84 2.42 2.92 2.42.693 0 1.287-.22 1.78-.66.493-.44.74-.953.74-1.54 0-.587-.207-1.143-.62-1.67-.413-.527-1.127-1.173-2.14-1.94-1.013-.767-1.71-1.35-2.09-1.75-.38-.4-.657-.827-.83-1.28a3.784 3.784 0 0 1-.26-1.36c0-.973.337-1.797 1.01-2.47.673-.673 1.543-1.01 2.61-1.01.827 0 1.547.21 2.16.63.613.42 1.213 1.043 1.8 1.87l-1.38 1.08zM98.28 22.8h-1.72v-6.94h-7.02v6.94H87.8V8.16h1.74v6.02h7.02V8.16h1.72V22.8zm10.2-15c1.427 0 2.74.337 3.94 1.01a7.388 7.388 0 0 1 2.83 2.79 7.593 7.593 0 0 1 1.03 3.87 7.65 7.65 0 0 1-1.02 3.87 7.429 7.429 0 0 1-2.8 2.8 7.65 7.65 0 0 1-3.87 1.02 7.82 7.82 0 0 1-3.89-1.01 7.337 7.337 0 0 1-2.82-2.78 7.596 7.596 0 0 1-1.02-3.86c0-1.393.34-2.687 1.02-3.88a7.43 7.43 0 0 1 2.79-2.81 7.504 7.504 0 0 1 3.81-1.02zm.06 13.68c1.667 0 3.077-.567 4.23-1.7 1.153-1.133 1.73-2.553 1.73-4.26 0-1.707-.583-3.14-1.75-4.3-1.167-1.16-2.57-1.74-4.21-1.74-1.68 0-3.083.583-4.21 1.75-1.127 1.167-1.69 2.587-1.69 4.26 0 1.673.58 3.09 1.74 4.25 1.16 1.16 2.547 1.74 4.16 1.74zm10.32-13.32h3c1.707 0 2.827.067 3.36.2a3.93 3.93 0 0 1 1.47.72c.447.347.797.78 1.05 1.3s.38 1.107.38 1.76-.123 1.24-.37 1.76-.6.95-1.06 1.29c-.46.34-1.023.58-1.69.72s-1.847.21-3.54.21h-.88v6.68h-1.72V8.16zm1.72 6.3h2.28c1.347.027 2.263-.187 2.75-.64.487-.453.73-1.02.73-1.7 0-1.52-1.12-2.28-3.36-2.28h-2.4v4.62z"/>
        <path stroke="#111" stroke-width="2" d="M39 1h29v29H39z"/>
    </g>
</svg>
