<svg xmlns="http://www.w3.org/2000/svg" width="164" height="23" viewBox="0 0 164 23">
    <g fill="#86AAA4" fill-rule="evenodd">
        <g transform="translate(0 .017)">
            <ellipse cx="11.736" cy="2.851" opacity=".54" rx="2.934" ry="2.851"/>
            <ellipse cx="2.934" cy="11.403" opacity=".54" rx="2.934" ry="2.851"/>
            <ellipse cx="11.736" cy="19.955" opacity=".54" rx="2.934" ry="2.851"/>
            <ellipse cx="11.736" cy="11.403" rx="2.934" ry="2.851"/>
            <ellipse cx="20.538" cy="11.403" rx="2.934" ry="2.851"/>
            <path d="M20.538 5.701c1.62 0 2.934-1.276 2.934-2.85C23.472 1.276 22.158 0 20.538 0s-2.934 1.276-2.934 2.85c0 1.575 1.314 2.851 2.934 2.851z"/>
            <ellipse cx="29.34" cy="11.403" rx="2.934" ry="2.851"/>
            <path d="M20.538 22.805c1.62 0 2.934-1.276 2.934-2.85 0-1.575-1.314-2.85-2.934-2.85s-2.934 1.275-2.934 2.85c0 1.574 1.314 2.85 2.934 2.85z"/>
        </g>
        <path d="M46.783 8.142c.692 0 1.578.106 2.657.316l.54.119-.08 2.095c-1.053-.105-1.832-.158-2.338-.158-.92 0-1.529.194-1.828.583-.3.389-.45 1.123-.45 2.204 0 1.08.15 1.821.45 2.223.3.402.915.603 1.848.603l2.317-.158.08 2.115c-1.425.277-2.51.415-3.256.415-1.479 0-2.541-.412-3.187-1.235-.646-.824-.969-2.145-.969-3.963 0-1.819.333-3.133.999-3.943.666-.81 1.738-1.216 3.217-1.216zm9.17 0c1.652 0 2.83.451 3.536 1.354s1.06 2.17 1.06 3.805c0 3.465-1.532 5.198-4.596 5.198-3.063 0-4.595-1.733-4.595-5.198 0-1.634.353-2.902 1.059-3.805s1.884-1.354 3.536-1.354zm0 8.104c.706 0 1.195-.237 1.469-.712.273-.474.41-1.219.41-2.233 0-1.015-.137-1.753-.41-2.214-.274-.461-.763-.692-1.469-.692-.706 0-1.195.231-1.468.692-.273.461-.41 1.2-.41 2.214s.137 1.759.41 2.233c.273.475.762.712 1.468.712zm9.23 2.016h-2.677V8.379h2.657v.554c.906-.527 1.739-.79 2.498-.79 1.332 0 2.25.388 2.757 1.165.506.778.76 1.977.76 3.597v5.357H68.5v-5.277c0-.844-.1-1.466-.3-1.868-.2-.402-.6-.603-1.198-.603-.547 0-1.073.092-1.579.277l-.24.079v7.392zm11.049 0h-2.677V8.379h2.657v.554c.906-.527 1.738-.79 2.497-.79 1.332 0 2.251.388 2.757 1.165.507.778.76 1.977.76 3.597v5.357h-2.678v-5.277c0-.844-.1-1.466-.3-1.868-.2-.402-.599-.603-1.198-.603-.546 0-1.072.092-1.578.277l-.24.079v7.392zm11.058-2.5c.313.27.763.405 1.349.405 1.239 0 2.344-.04 3.316-.119l.56-.06.04 1.957c-1.532.37-2.917.554-4.156.554-1.505 0-2.597-.395-3.276-1.186-.68-.79-1.02-2.075-1.02-3.854 0-3.545 1.472-5.317 4.416-5.317 2.904 0 4.355 1.49 4.355 4.467l-.2 1.838h-5.873c.013.606.176 1.044.49 1.314zm2.947-3.33c0-.791-.126-1.342-.38-1.651-.252-.31-.695-.465-1.328-.465-.633 0-1.079.162-1.339.485-.26.322-.396.866-.41 1.63h3.457zm8.292-4.29c.692 0 1.578.106 2.657.316l.54.119-.08 2.095c-1.053-.105-1.832-.158-2.338-.158-.92 0-1.529.194-1.828.583-.3.389-.45 1.123-.45 2.204 0 1.08.15 1.821.45 2.223.3.402.915.603 1.848.603l2.317-.158.08 2.115c-1.425.277-2.51.415-3.256.415-1.479 0-2.541-.412-3.187-1.235-.646-.824-.969-2.145-.969-3.963 0-1.819.333-3.133.999-3.943.666-.81 1.738-1.216 3.217-1.216zm10.708 2.49h-2.457v4.052c0 .396.01.676.03.84a.68.68 0 0 0 .22.425c.126.119.323.178.589.178l1.518-.04.12 2.115c-.892.198-1.571.297-2.038.297-1.198 0-2.017-.267-2.457-.8-.44-.534-.66-1.52-.66-2.955v-4.111h-1.178V8.379h1.179V5.632h2.677V8.38h2.457v2.254zm4.416 7.63h-2.677V4.426h2.677v4.428c.919-.475 1.745-.712 2.477-.712 1.332 0 2.251.389 2.757 1.166.506.778.76 1.977.76 3.597v5.357h-2.678v-5.297c0-.83-.1-1.446-.3-1.848-.2-.402-.599-.603-1.198-.603-.52 0-1.04.079-1.559.237l-.26.08v7.43zm11.058-2.5c.313.27.763.405 1.349.405 1.238 0 2.344-.04 3.316-.119l.56-.06.04 1.957c-1.532.37-2.917.554-4.156.554-1.505 0-2.597-.395-3.277-1.186-.679-.79-1.018-2.075-1.018-3.854 0-3.545 1.471-5.317 4.415-5.317 2.904 0 4.355 1.49 4.355 4.467l-.2 1.838h-5.873c.013.606.176 1.044.49 1.314zm2.947-3.33c0-.791-.126-1.342-.38-1.651-.253-.31-.695-.465-1.328-.465-.633 0-1.079.162-1.339.485-.26.322-.396.866-.41 1.63h3.457zm12.207-.97v4.112c.027.316.08.537.16.662s.247.214.5.267l-.08 1.996c-.68 0-1.222-.046-1.629-.138a3.682 3.682 0 0 1-1.228-.554c-.96.461-1.938.692-2.937.692-2.065 0-3.097-1.08-3.097-3.242 0-1.054.286-1.801.86-2.243.572-.441 1.45-.701 2.636-.78l2.138-.159v-.612c0-.409-.093-.689-.28-.84-.186-.152-.486-.228-.899-.228l-3.756.158-.08-1.838c1.426-.382 2.78-.573 4.066-.573 1.285 0 2.211.264 2.777.79.566.528.85 1.371.85 2.53zm-4.495 2.61c-.746.065-1.119.46-1.119 1.185 0 .725.327 1.088.98 1.088.505 0 1.058-.08 1.657-.238l.3-.079v-2.115l-1.818.159zm7.173 4.19V4.426h2.677v13.836h-2.677zm10.808-7.63h-2.457v4.052c0 .396.01.676.03.84a.68.68 0 0 0 .22.425c.126.119.323.178.589.178l1.518-.04.12 2.115c-.892.198-1.571.297-2.038.297-1.198 0-2.018-.267-2.457-.8-.44-.534-.66-1.52-.66-2.955v-4.111h-1.178V8.379h1.179V5.632h2.677V8.38h2.457v2.254zm4.416 7.63h-2.678V4.426h2.678v4.428c.919-.475 1.744-.712 2.477-.712 1.332 0 2.251.389 2.757 1.166.506.778.76 1.977.76 3.597v5.357h-2.678v-5.297c0-.83-.1-1.446-.3-1.848-.2-.402-.599-.603-1.198-.603-.52 0-1.04.079-1.559.237l-.26.08v7.43z"/>
    </g>
</svg>
