<svg xmlns="http://www.w3.org/2000/svg" xmlns:xlink="http://www.w3.org/1999/xlink" width="44" height="40" viewBox="0 0 44 40">
    <defs>
        <path id="a" d="M0 39.959h43.474V0H0z"/>
    </defs>
    <g fill="none" fill-rule="evenodd">
        <mask id="b" fill="#fff">
            <use xlink:href="#a"/>
        </mask>
        <path fill="#6CAFA0" d="M5.59 4.601c.671-1.05 1.62-1.15 2.205-.997 1.486.39 3.026 3.1 3.026 3.1-2.04 1.433-3.78 4.94-3.737 4.983C4.23 8.219 4.76 5.898 5.59 4.6zm8.426 11.987c.043.164.067.338.067.518 0 1.017-.73 1.842-1.63 1.842-.902 0-1.632-.825-1.632-1.842l.002-.046c.544-.221 1.573-.509 3.193-.472zm15.038 0c1.621-.037 2.65.25 3.193.472l.002.046c0 1.017-.73 1.842-1.63 1.842-.901 0-1.632-.825-1.632-1.842 0-.18.024-.354.067-.518zm7.058-7.436l.081.212-1.07 1.282a16.634 16.634 0 0 0-4.317-4.8c3.544-2.634 5.263 3.306 5.306 3.306zM6.464 12.96A17.264 17.264 0 0 0 5.2 19.468c0 2.356.469 4.597 1.314 6.632H8.69c1.556-4.174 5.234-7.37 9.779-8.38.675-.44 2.308-2.276 2.515-9.783.005-.163.011-.325.014-.487.022-1.117.005-2.459.387-2.459.381 0 .37 1.453.385 2.459.003.162.011.324.015.487.14 7.052 1.594 9.097 2.352 9.685 4.766.883 8.652 4.156 10.263 8.478h1.825a17.255 17.255 0 0 0 1.313-6.632c0-2.87-.695-5.573-1.92-7.935l1.146-.865c.808 1.597 1.47 1.804 2.158 1.735 1.643-.564 1.6-4.421 1.6-4.421-2.638-2.297-6.544-4.218-8.042-4.118-1.702.114-2.463 1.429-2.463 1.429h.001a15.692 15.692 0 0 0-17.81.353S7.29-.223 6.412.006C5.747.18 4.64 1.577 3.774 4.472c-.648 2.167-.475 3.944-.086 4.768.39.823 1.124 2.254 2.776 3.72zm14.15 11.418c.41.272.94.26.94.26s.53.012.94-.26c-.033 0-.184-1.517.778-1.658.655-.096.94.585.94.585l1.005-.595s.649-.51-.227-.998l-2.323-1.365s-.627-.358-1.114-.358c-.486 0-1.113.358-1.113.358l-2.323 1.365c-.876.488-.227.998-.227.998l1.005.595s.285-.681.94-.585c.962.14.81 1.658.778 1.658zM5.278 37.347c-.452.144-1.137.129-1.188-.024-.023-.069-.032-1.12-.02-2.335l.025-2.21.386-.03c1.208-.098 1.813.675 1.813 2.317 0 1.239-.373 2.079-1.016 2.282zm2.784-6.344c-.85-.474-1.378-.53-4.85-.531L0 30.469v2.236l.342.062c.21.038.377.135.431.252.053.111.09.975.09 2.098 0 2.117-.012 2.164-.588 2.295L0 37.473v2.237h3.096c3.355 0 4.004-.07 4.883-.528.926-.483 1.618-1.5 1.84-2.698.054-.286.098-.913.098-1.395 0-.481-.044-1.108-.097-1.395-.216-1.161-.902-2.214-1.757-2.69zm17.216 5.343l.299.064c.567.122.758.85.326 1.239-.191.171-.317.205-.65.169-.89-.097-1.219-.901-1.17-2.86.027-1.037.06-1.261.246-1.688.271-.618.67-.933 1.18-.933.652 0 1.165.465 1.288 1.17l.054.304h1.876V30.47h-.906c-.73 0-.905.026-.905.14 0 .248-.127.249-.582 0-.503-.273-1.175-.41-1.857-.386a4.32 4.32 0 0 0-.679.08c-2.182.429-3.372 2.096-3.38 4.737-.002 1.135.123 1.832.478 2.64.558 1.27 1.545 1.982 3.088 2.23.98.157 2.234-.108 2.857-.605.239-.192.328-.146.447.233.046.148.17.172.876.172h.822v-1.46c0-1.617.024-1.695.582-1.83l.28-.068v-1.95h-4.57v1.944zm18.195-3.81V30.47h-7.589v3.637h1.803l.06-.608c.086-.877.273-1.063 1.061-1.063.332 0 .622.037.647.083.025.046-.807 1.221-1.849 2.611l-1.894 2.529v2.052h7.76v-3.638h-1.896v.535c0 .423-.045.592-.208.808-.186.247-.27.279-.868.314-.365.02-.699-.005-.743-.056-.05-.057.642-1.054 1.816-2.614l1.9-2.523zm-27.628 5.027c-.2.227-.32.28-.65.28-.565 0-.926-.415-1.074-1.233-.152-.831-.078-3.135.113-3.551.219-.478.609-.742.986-.74.226 0 .448.095.625.297.349.397.45.958.45 2.473 0 1.516-.101 2.076-.45 2.474zm-.646-7.316c-1.237-.005-1.97.17-2.82.68-.942.564-1.553 1.463-1.845 2.712-.154.66-.153 2.235 0 2.891.447 1.914 1.758 3.1 3.738 3.377 1.17.163 2.627-.067 3.54-.56 1.65-.887 2.482-3.12 2.043-5.484-.441-2.374-2.024-3.604-4.656-3.616zm14.735 2.483h.261c.164 0 .343.092.475.242.21.24.213.26.213 2.056 0 .998-.025 1.888-.054 1.975-.065.193-.473.446-.717.446-.168 0-.178.056-.178 1.13v1.131h5.002v-2.237l-.275-.06c-.577-.133-.588-.176-.588-2.333v-1.942l.227-.205c.125-.113.319-.203.43-.203.203 0 .206-.008.206-1.13v-1.131h-5.002v2.26z" mask="url(#b)"/>
    </g>
</svg>
