<svg xmlns="http://www.w3.org/2000/svg" width="114" height="24" viewBox="0 0 114 24">
    <g fill="#B2B8BD" fill-rule="nonzero">
        <path d="M22.8 23.25h-3.563l-2.079-12.075L13.04 23.25H9.786L5.732 11.175 3.615 23.25H0S3.395 4.902 3.344 4.124c-.052-.778 3.602 0 3.602 0l4.48 13.337S16.06 4.953 15.97 4.124c-.077-.842 3.55 0 3.55 0L22.8 23.25zM40.28 16.474c0 1.351-.34 2.612-1.006 3.782a7.37 7.37 0 0 1-2.784 2.753c-1.176.657-2.47.991-3.882.991-2.104 0-3.882-.733-5.345-2.187-1.464-1.454-2.183-3.229-2.183-5.3 0-2.239.836-4.091 2.496-5.57C29.027 9.643 30.7 9 32.595 9c1.372 0 2.653.334 3.856 1.003a7.35 7.35 0 0 1 3.829 6.471zm-3.686.013c0-1.183-.353-2.174-1.071-2.946-.72-.785-1.673-1.17-2.863-1.17-1.163 0-2.13.398-2.875 1.196-.706.772-1.059 1.75-1.059 2.92 0 1.184.353 2.161 1.046 2.946.732.81 1.686 1.222 2.862 1.222 1.19 0 2.144-.399 2.889-1.222.705-.797 1.071-1.775 1.071-2.946zM56.227 23.25h-3.61v-6.27c0-1.252-.026-2.077-.078-2.477-.132-1.084-.46-1.807-.972-2.194-.393-.284-.866-.438-1.444-.438-1.548 0-2.559.903-2.992 2.696-.105.426-.158 1.406-.158 2.942v5.741h-3.635s-.04-18.914 0-19.843c.039-.916 3.635 0 3.635 0v6.967c1.431-1.213 2.875-1.82 4.345-1.82 1.562 0 2.783.491 3.662 1.485.84.941 1.26 2.18 1.26 3.741v9.47h-.013zM74.48 23.63H70.8v-1.493C69.434 23.375 67.94 24 66.283 24c-2.026 0-3.72-.753-5.07-2.258-1.285-1.455-1.934-3.164-1.934-5.155 0-2.041.61-3.764 1.84-5.193 1.298-1.518 2.993-2.27 5.058-2.27 1.774 0 3.31.637 4.621 1.926 0 0 .106-.447 0-1.557-.106-1.11 3.681 0 3.681 0V23.63zm-3.509-7.094c0-1.186-.37-2.169-1.099-2.947-.741-.778-1.708-1.174-2.939-1.174-1.192 0-2.158.408-2.913 1.225-.715.778-1.06 1.748-1.06 2.922 0 1.16.358 2.13 1.073 2.934.755.842 1.722 1.263 2.9 1.263 1.218 0 2.211-.408 2.966-1.237.715-.804 1.072-1.8 1.072-2.986zM97.28 9.164L92.01 23.25h-2.304l-3.058-8.028-3.162 8.028h-2.278S76.12 9.43 76.003 9.164c-.117-.267 3.552 0 3.552 0l2.902 8.015 3.124-8.015h2.173l3.045 7.926s2.837-7.558 2.902-7.926c.065-.369 3.579 0 3.579 0zM114 24h-4.563l-6.197-6.659V24h-3.68s.053-19.572 0-20.042c-.052-.469 3.68 0 3.68 0v11.559l5.406-5.968h4.59l-6.29 6.932L114 24z"/>
        <path d="M32.938 7.004c3.062 0 5.781 1.366 7.51 3.496 0 0 1.215-.79 1.98-.927.753-.125-1.966-1.065-2.111-1.253-.146-.188 1.28-3.771 1.095-3.395-.185.375-3.273 1.403-3.55 1.265-.278-.138-1.32-5.625-1.36-4.636-.027 1.003-2.324 3.446-2.508 3.52-.185.076-4.317-5.863-4.013-4.986.303.877-.106 4.9-.264 4.962-.172.05-5.716-3.283-4.449-2.13 1.267 1.165 3.01 5.237 3.01 5.237a9.97 9.97 0 0 1 4.66-1.153z"/>
    </g>
</svg>
