<svg xmlns="http://www.w3.org/2000/svg" xmlns:xlink="http://www.w3.org/1999/xlink" width="196" height="81" viewBox="0 0 196 81">
    <defs>
        <filter id="a" width="168.3%" height="453.6%" x="-34.1%" y="-133.9%" filterUnits="objectBoundingBox">
            <feOffset dy="12" in="SourceAlpha" result="shadowOffsetOuter1"/>
            <feGaussianBlur in="shadowOffsetOuter1" result="shadowBlurOuter1" stdDeviation="14.5"/>
            <feColorMatrix in="shadowBlurOuter1" result="shadowMatrixOuter1" values="0 0 0 0 0.0600095739 0 0 0 0 0.085257289 0 0 0 0 0.139960672 0 0 0 1 0"/>
            <feMerge>
                <feMergeNode in="shadowMatrixOuter1"/>
                <feMergeNode in="SourceGraphic"/>
            </feMerge>
        </filter>
        <linearGradient id="c" x1="50%" x2="50%" y1="3.223%" y2="100%">
            <stop offset="0%" stop-color="#B3B9C5"/>
            <stop offset="100%" stop-color="#79808E"/>
        </linearGradient>
        <path id="b" d="M21.514 0L12.36 25.059h-.08L3.046 0H.18l10.508 28h3.145L24.38 0z"/>
        <linearGradient id="d" x1="50%" x2="50%" y1="2.304%" y2="98.208%">
            <stop offset="0%" stop-color="#CDD0D4"/>
            <stop offset="100%" stop-color="#B1B8C7"/>
        </linearGradient>
    </defs>
    <g fill="none" fill-rule="evenodd" filter="url(#a)" opacity=".8" transform="translate(26 15)">
        <use fill="url(#c)" xlink:href="#b"/>
        <path fill="url(#d)" d="M21.362 0l-9.105 14.196L3.113 0H0l10.895 16.47V28h2.646V16.47L24.514 0z"/>
        <path fill="#C4C9D0" d="M39.203 4.286L44.59 20.19l5.388-15.905h4.23l-7.22 19.932h-4.795L35 4.286h4.203zm21.493 3.026v5.226h6.544v3.084h-6.544v5.512h7.39v3.084H56.719V4.228h11.367v3.084h-7.39zm15.429 13.85h6.318v3.056H72.148V4.286h3.977v16.876zM99.183 5.314a9.671 9.671 0 0 1 3.639 3.64c.893 1.552 1.34 3.299 1.34 5.24 0 1.961-.447 3.717-1.34 5.269a9.641 9.641 0 0 1-3.653 3.64c-1.542.877-3.234 1.314-5.077 1.314s-3.535-.437-5.077-1.313a9.641 9.641 0 0 1-3.653-3.641c-.893-1.552-1.34-3.308-1.34-5.269 0-1.941.447-3.688 1.34-5.24a9.641 9.641 0 0 1 3.653-3.64C90.557 4.438 92.249 4 94.092 4c1.862 0 3.559.438 5.091 1.314zm-8.236 3.17c-.912.532-1.622 1.294-2.13 2.284-.507.99-.761 2.132-.761 3.426 0 1.295.254 2.437.761 3.427.508.99 1.218 1.756 2.13 2.299.912.542 1.96.814 3.145.814s2.228-.272 3.13-.814c.904-.543 1.609-1.304 2.116-2.285.508-.98.762-2.127.762-3.44 0-1.314-.254-2.461-.762-3.442-.507-.98-1.212-1.737-2.115-2.27-.903-.533-1.946-.8-3.131-.8-1.185 0-2.233.267-3.145.8zm31.027-2.828c1.664 1.104 2.853 2.656 3.568 4.655h-4.767c-.884-1.752-2.388-2.627-4.513-2.627-1.185 0-2.233.266-3.145.8-.912.532-1.622 1.294-2.13 2.284-.507.99-.761 2.132-.761 3.426 0 1.295.254 2.437.762 3.427.507.99 1.217 1.756 2.13 2.299.911.542 1.96.814 3.144.814 2.106 0 3.61-.876 4.513-2.627h4.767c-.715 1.999-1.904 3.545-3.568 4.64-1.664 1.095-3.568 1.642-5.712 1.642-1.843 0-3.535-.433-5.077-1.3a9.538 9.538 0 0 1-3.653-3.626c-.893-1.552-1.34-3.308-1.34-5.269 0-1.941.447-3.688 1.34-5.24a9.641 9.641 0 0 1 3.653-3.64C112.727 4.438 114.419 4 116.262 4c2.144 0 4.048.552 5.712 1.656zm22.607-1.37l-6.657 13.078v6.854h-3.977v-6.854l-6.656-13.078h4.456l4.203 9.394 4.175-9.394h4.456z"/>
    </g>
</svg>
